<svg width="63" height="55" viewBox="0 0 63 55" fill="none" xmlns="http://www.w3.org/2000/svg">
<path fill-rule="evenodd" clip-rule="evenodd" d="M16.486 0.0276177C16.4601 0.0529888 16.1736 0.0959443 15.8493 0.123074C15.525 0.150203 15.0871 0.199627 14.8762 0.232848C14.2928 0.32485 12.1971 0.871837 11.9697 0.991471C11.8967 1.02984 11.6698 1.11374 11.4655 1.17786C11.2612 1.24198 10.889 1.39597 10.6383 1.52006C10.3876 1.64415 10.1475 1.74564 10.1048 1.74564C10.0621 1.74564 9.83852 1.85466 9.60796 1.98792C9.37739 2.12118 8.91198 2.38959 8.57367 2.58433C8.06813 2.87541 6.59118 3.9145 6.47283 4.06245C6.45526 4.08437 6.28329 4.22912 6.09062 4.38411C5.64425 4.7432 4.92597 5.44851 4.55571 5.89144C4.39755 6.08066 4.20635 6.2975 4.13088 6.37337C3.9005 6.60491 3.45222 7.20226 2.90967 8.00058C2.43206 8.70337 1.43158 10.5585 1.19436 11.1811C0.824808 12.1512 0.583315 12.9071 0.466882 13.4578C0.0752149 15.3109 0 16.0036 0 17.7596C0 20.3804 0.294981 21.9045 1.32192 24.5897C1.5413 25.1634 2.41614 26.7928 2.8312 27.4007C3.24677 28.0095 4.20756 29.2395 4.42439 29.4404C4.48031 29.4922 4.65495 29.6892 4.81248 29.8783C5.04579 30.1582 29.3983 54.1295 29.937 54.6094C30.176 54.8224 30.7329 55 31.1617 55C31.4491 55 31.6336 54.9546 31.9505 54.806C32.3351 54.6257 33.2491 53.7422 44.9641 42.2287C51.894 35.4179 57.6933 29.6907 57.8513 29.5016C58.0093 29.3126 58.1742 29.1209 58.2178 29.0758C58.9386 28.3292 60.514 25.7496 60.9576 24.5897C61.6918 22.6699 61.9528 21.6764 62.2078 19.832C62.3033 19.1414 62.3033 16.2522 62.2078 15.5616C62.0773 14.6176 61.937 13.8478 61.8188 13.4264C61.5856 12.5959 61.4936 12.2935 61.3984 12.0448C61.3388 11.8894 61.2204 11.5694 61.1352 11.3338C60.6625 10.0262 59.0223 7.27674 58.2178 6.44345C58.1742 6.39836 58.0093 6.20657 57.8513 6.01723C57.4841 5.57738 56.7663 4.87169 56.3169 4.50883C56.1243 4.3534 55.9037 4.16551 55.8265 4.09134C55.4845 3.76277 54.4347 3.03599 53.5061 2.48492C52.971 2.1674 51.5934 1.47911 51.2227 1.34409C51.0902 1.29586 50.8381 1.19953 50.6624 1.13007C49.8679 0.815883 48.8004 0.496545 48.0743 0.355873C46.699 0.0893503 45.9973 0.0296904 44.2401 0.0296904C43.3087 0.0296904 42.3022 0.0623463 42.0034 0.102224C41.0789 0.225752 40.3066 0.360207 39.8307 0.480531C39.6083 0.536737 37.8099 1.13861 37.2899 1.33078C36.7344 1.53614 35.0591 2.39857 34.4987 2.76764C33.9359 3.13835 32.7825 3.97535 32.6028 4.14347C32.5538 4.18931 32.3565 4.35384 32.1643 4.50909C31.9721 4.66439 31.6866 4.91151 31.5298 5.05833C31.373 5.20516 31.1968 5.32523 31.1383 5.32523C31.0797 5.32523 30.8753 5.17684 30.6841 4.99553C30.4927 4.81423 30.1791 4.53879 29.9871 4.38349C29.7951 4.22824 29.6004 4.06616 29.5546 4.02339C29.2469 3.73646 28.1486 2.98524 27.3055 2.48492C26.7704 2.1674 25.3928 1.47911 25.0221 1.34409C24.8896 1.29586 24.6231 1.19394 24.4298 1.11764C23.6953 0.827689 23.5894 0.79384 22.4488 0.484613C22.0246 0.369563 21.2134 0.226191 20.308 0.106118C19.7018 0.0257337 16.5537 -0.0389503 16.486 0.0276177ZM20.0844 3.8667C20.9289 4.01912 21.1663 4.06967 21.6181 4.19352C21.8817 4.2658 22.2555 4.36634 22.4488 4.41702C23.6447 4.73052 26.3921 6.21856 27.2113 6.9964C27.3527 7.13073 27.6248 7.3678 27.816 7.52323C28.0071 7.67866 28.6054 8.23727 29.1457 8.7646C29.6859 9.29193 30.2046 9.76061 30.2983 9.80601C30.3921 9.85148 30.6295 9.92508 30.826 9.9696C31.1537 10.0438 31.2173 10.0389 31.5929 9.91051C31.8182 9.83352 32.0685 9.72971 32.1491 9.67978C32.2298 9.62986 32.7625 9.13129 33.3329 8.5718C33.9033 8.01238 34.5269 7.42746 34.7188 7.27203C34.9106 7.1166 35.1543 6.90823 35.2604 6.80901C35.5039 6.58117 36.4651 5.94143 37.0509 5.61719C38.267 4.9441 38.2206 4.96526 39.3514 4.56686C39.8495 4.3914 41.0403 4.08588 41.7478 3.95205C41.9411 3.9155 42.2143 3.86407 42.3549 3.83775C42.4955 3.81144 43.3438 3.7899 44.2401 3.7899C45.1363 3.7899 45.9846 3.81144 46.1252 3.83775C46.2658 3.86407 46.539 3.9155 46.7323 3.95205C47.3907 4.07658 48.6545 4.39586 48.9879 4.5219C49.1708 4.59104 49.4287 4.687 49.561 4.73523C50.4634 5.06392 52.1013 5.99713 53.0508 6.7236C53.5759 7.12533 54.8927 8.42115 55.4121 9.04726C56.0114 9.76965 57.0887 11.5507 57.366 12.2773C57.8069 13.4328 57.9811 14.0147 58.1707 14.965C58.212 15.1723 58.2601 15.3983 58.2775 15.4674C58.5143 16.4072 58.4953 19.0431 58.2433 20.2088C58.2098 20.3643 58.1627 20.6045 58.1388 20.7426C58.0979 20.9788 58.0234 21.2492 57.7058 22.3126C57.6336 22.5544 57.5081 22.8844 57.4268 23.0459C57.3455 23.2075 57.2401 23.4507 57.1925 23.5866C57.0431 24.0127 56.0123 25.6855 55.4428 26.426C55.0292 26.9638 53.7582 28.3012 52.6489 29.3661C52.3004 29.7005 51.8978 30.0988 51.7542 30.251C51.6106 30.4032 51.208 30.7988 50.8596 31.1302C50.5111 31.4615 50.1085 31.8571 49.9649 32.0094C49.8213 32.1616 49.4187 32.5572 49.0702 32.8886C48.7218 33.2199 48.3192 33.6155 48.1756 33.7678C48.032 33.92 47.6288 34.3156 47.2794 34.647C46.9301 34.9783 46.4987 35.4014 46.3208 35.5871C46.143 35.7728 45.7401 36.1684 45.4257 36.4663C45.1113 36.7641 44.7087 37.1598 44.5311 37.3455C44.3534 37.5312 43.9508 37.9268 43.6364 38.2247C43.322 38.5225 42.9194 38.9182 42.7418 39.1039C42.5641 39.2896 42.1615 39.6852 41.8471 39.9831C41.5327 40.2809 41.1301 40.6765 40.9525 40.8622C40.7748 41.0479 40.3443 41.4718 39.9959 41.8042C39.6474 42.1366 39.2448 42.5331 39.1012 42.6854C38.9576 42.8376 38.555 43.2332 38.2066 43.5646C37.8581 43.8959 37.4555 44.2915 37.3119 44.4438C37.1683 44.596 36.7657 44.9916 36.4173 45.323C36.0688 45.6543 35.6662 46.0491 35.5226 46.2004C35.1557 46.5869 34.2766 47.4479 33.9438 47.7466C33.7898 47.8848 33.5489 48.1257 33.4083 48.2819C33.2678 48.4382 32.9948 48.6925 32.8018 48.8471C32.6088 49.0017 32.2034 49.3721 31.9011 49.6702C31.5988 49.9683 31.2899 50.2446 31.2148 50.2842C31.0883 50.3507 30.3496 49.6408 21.2729 40.7303C15.88 35.4362 11.2856 30.9342 11.0631 30.7261C10.1074 29.8317 7.10688 26.7936 6.81312 26.4228C5.78024 25.1192 4.9229 23.5207 4.45698 22.03C3.93227 20.3512 3.83008 19.655 3.83008 17.7596C3.83008 16.0917 3.91233 15.3767 4.23466 14.2428C4.30828 13.9838 4.41071 13.6164 4.46228 13.4264C4.58294 12.982 4.7232 12.6555 5.26818 11.5504C6.01189 10.0422 6.68231 9.13386 8.01439 7.82951C9.32819 6.54311 10.142 5.96988 11.8332 5.13941C13.0135 4.55983 13.3968 4.43592 15.5321 3.94363C15.682 3.9091 15.8977 3.87882 16.0114 3.87644C16.1251 3.87399 16.2757 3.84705 16.346 3.81653C16.5144 3.74337 19.6328 3.78525 20.0844 3.8667Z" fill="black"/>
<path fill-rule="evenodd" clip-rule="evenodd" d="M17.8124 6.50944C17.7393 6.53715 17.4929 6.56158 17.2649 6.56378C17.037 6.56593 16.7229 6.59279 16.567 6.62337C15.1568 6.90021 14.5627 7.05009 13.3391 7.43781C12.1804 7.80494 10.3343 8.84967 9.24522 9.75456C7.46561 11.2332 6.08515 13.5063 5.7318 15.5399C5.63588 16.092 5.63927 18.1429 5.73711 18.7564C5.87178 19.6009 6.01815 20.2954 6.14152 20.675C6.46124 21.6589 6.77877 22.5094 6.96316 22.8757C7.01787 22.9843 7.129 23.2129 7.21016 23.3836C8.19452 25.4533 9.43765 27.2974 11.5223 29.7801C12.1071 30.4767 13.7798 32.3135 13.9191 32.4122C13.941 32.4277 14.0927 32.5801 14.2562 32.7508C14.4197 32.9215 14.5693 33.0738 14.5886 33.0894C14.6079 33.1049 14.7577 33.2572 14.9217 33.4279C15.0855 33.5986 15.3245 33.8272 15.4527 33.9358C15.5809 34.0444 15.8203 34.273 15.9847 34.4437C16.149 34.6144 16.4182 34.8683 16.5827 35.0079C16.7472 35.1476 17.0164 35.4009 17.1809 35.5707C17.5684 35.9709 24.2835 41.6722 24.7595 42.0051C24.9591 42.1448 25.4672 42.5511 25.8885 42.908C26.3099 43.2649 26.8185 43.6712 27.0189 43.8109C27.2191 43.9505 27.6378 44.2806 27.9491 44.5444C28.2605 44.8083 28.6781 45.1384 28.8772 45.278C29.0764 45.4177 29.5598 45.7998 29.9516 46.1273C30.3433 46.4547 30.7709 46.7715 30.9018 46.8313C31.1364 46.9386 31.143 46.9386 31.3762 46.832C31.5063 46.7725 31.904 46.4811 32.26 46.1843C32.6159 45.8876 33.0701 45.5305 33.2691 45.3909C33.4682 45.2512 33.9158 44.8957 34.2638 44.6009C34.6118 44.306 35.0605 43.9505 35.2607 43.8109C35.4609 43.6712 35.9695 43.2649 36.3909 42.908C36.8122 42.5511 37.3203 42.1448 37.5199 42.0051C37.9959 41.6722 44.711 35.9709 45.0985 35.5707C45.263 35.4009 45.5322 35.1476 45.6967 35.0079C45.8612 34.8683 46.1304 34.6144 46.2947 34.4437C46.4591 34.273 46.6985 34.0444 46.8267 33.9358C46.9549 33.8272 47.1939 33.5986 47.3577 33.4279C47.5217 33.2572 47.6715 33.1049 47.6908 33.0894C47.7101 33.0738 47.8597 32.9215 48.0232 32.7508C48.1867 32.5801 48.3384 32.4277 48.3603 32.4122C48.4996 32.3135 50.1723 30.4767 50.7571 29.7801C52.8209 27.3222 54.103 25.4205 55.0696 23.3836C55.1505 23.2129 55.2615 22.9843 55.3162 22.8757C55.5006 22.5094 55.8182 21.6589 56.1379 20.675C56.2612 20.2954 56.4076 19.6009 56.5423 18.7564C56.6401 18.1429 56.6435 16.092 56.5476 15.5399C56.1942 13.5063 54.8138 11.2332 53.0342 9.75456C51.9457 8.85012 50.1045 7.80799 48.9403 7.43736C46.5921 6.68979 45.4256 6.49505 43.3038 6.49641C41.3522 6.49759 39.9029 6.67924 38.5511 7.09196C37.3857 7.4478 37.2036 7.52031 36.3244 7.97835C35.5192 8.39778 35.0242 8.74245 34.1059 9.52286C33.1165 10.3639 32.6677 10.8291 31.8806 11.8297C31.4418 12.3875 31.2336 12.6056 31.1397 12.6056C31.0458 12.6056 30.8376 12.3875 30.3988 11.8297C29.6117 10.8291 29.1629 10.3639 28.1735 9.52286C27.0667 8.58219 26.2138 8.0385 25.0792 7.55022C24.2959 7.21317 22.7941 6.80389 21.8671 6.67484C20.738 6.51768 18.0771 6.40911 17.8124 6.50944Z" fill="#2ECC71"/>
</svg>
